<svg width="109" height="86" viewBox="0 0 109 86" fill="none" xmlns="http://www.w3.org/2000/svg">
<path id="eraser" d="M49.3603 23.5332L84.5636 56.1634M56.7276 81.6847L103.889 38.6232C106.911 35.8642 106.932 31.1128 103.935 28.3269L78.746 4.9116C76.0678 2.42198 71.9246 2.41324 69.2359 4.89153L22.1034 48.3353C19.0888 51.1141 19.0969 55.8771 22.121 58.6456L47.281 81.6786C49.9537 84.1253 54.0518 84.128 56.7276 81.6847ZM63.3061 75.5556L103.92 38.5811C106.932 35.8389 106.975 31.114 104.014 28.3166L79.0323 4.71398C76.3602 2.18934 72.1903 2.16189 69.4852 4.65115L28.9147 41.9834C25.9144 44.7442 25.8992 49.475 28.8818 52.255L53.8209 75.5C56.4863 77.9844 60.6117 78.0086 63.3061 75.5556Z" stroke="black" stroke-width="4"/>
<line id="bottom-line" x1="16.9" y1="83.6" x2="52.1" y2="83.6" stroke="black" stroke-width="3.8" stroke-linecap="round" stroke-linejoin="round"/>
<line id="top-line" x1="1.75" y1="76.25" x2="25.25" y2="76.25" stroke="black" stroke-width="3.5" stroke-linecap="round" stroke-linejoin="round"/>
</svg>
